<svg xmlns="http://www.w3.org/2000/svg" width="56" height="61.699" viewBox="0 0 56 61.699">
  <g id="_011-engineer" data-name="011-engineer" transform="translate(-4 -1.301)">
    <path id="Path_56" data-name="Path 56" d="M32,31a1,1,0,0,1-1-1H29a3,3,0,0,0,6,0H33A1,1,0,0,1,32,31Z"/>
    <circle id="Ellipse_18" data-name="Ellipse 18" cx="1" cy="1" r="1" transform="translate(23 21)"/>
    <circle id="Ellipse_19" data-name="Ellipse 19" cx="1" cy="1" r="1" transform="translate(39 21)"/>
    <path id="Path_57" data-name="Path 57" d="M59.936,51C59.281,42.758,51.8,36,43,36H40.72l-.5-1.513A15.332,15.332,0,0,0,46.381,26H47a4,4,0,0,0,4-4V13.383A12.172,12.172,0,0,0,45.193,3.145C41.356.775,36.69.689,32,2.889,27.311.69,22.642.776,18.807,3.146A12.169,12.169,0,0,0,13,13.383V22a4,4,0,0,0,4,4h.551a14.868,14.868,0,0,0,4.1,6.855,15.183,15.183,0,0,0,2.12,1.682L23.28,36H21C12.2,36,4.719,42.758,4.064,51H4v5a3,3,0,0,0,3,3h9v4H48V59h9a3,3,0,0,0,3-3V51Zm-2,0H52V40.942A14.132,14.132,0,0,1,57.935,51ZM50,39.7V51H48V43H46V40H44v3H38.139a8.024,8.024,0,0,0,2.782-5H43A15.318,15.318,0,0,1,50,39.7ZM23.938,37v-.021L24,37Zm2.505,3.8a6.008,6.008,0,0,1-1.211-2.268L29,39.944Zm1.941,1.462L32,41.054l3.616,1.205A8.281,8.281,0,0,1,32,43,8.3,8.3,0,0,1,28.384,42.26ZM40,37l.062-.021V37Zm-2.443,3.8L35,39.944l3.772-1.414A5.994,5.994,0,0,1,37.557,40.8ZM32.63,34.985A12.9,12.9,0,0,1,26,33.531V32a4,4,0,0,1,4-4h4a4,4,0,0,1,4,4v1.491a12.609,12.609,0,0,1-5.37,1.494ZM47,24h-.2a15.893,15.893,0,0,0,.2-2.4V20a2,2,0,1,1,0,4ZM19.858,4.847c3.346-2.068,7.5-2.051,11.694.047L32,5.118l.447-.224c4.2-2.1,8.35-2.115,11.694-.047A10.153,10.153,0,0,1,49,13.383v5.173A3.959,3.959,0,0,0,47,18V17H46a14.423,14.423,0,0,1-9.293-3.707l-1.145-1.144-.511,1.535c-.7,2.093-1.951,3.667-3.231,4.156l-1.153-6.921-1.374,1.374C29.246,12.34,24.511,17,18,17H17v1a3.959,3.959,0,0,0-2,.556V13.383a10.155,10.155,0,0,1,4.858-8.536ZM17,24a2,2,0,0,1,0-4v2a15.222,15.222,0,0,0,.147,2Zm2-2V18.969a19.371,19.371,0,0,0,10.3-4.062L30.153,20H31c2.127,0,4.158-1.664,5.414-4.341A16.288,16.288,0,0,0,45,18.966V21.6a13.514,13.514,0,0,1-5,10.563V32a6.006,6.006,0,0,0-6-6H33V24H31v2H30a6.006,6.006,0,0,0-6,6v.247c-.334-.263-.659-.541-.972-.839A12.889,12.889,0,0,1,19,22ZM31.99,37q.366,0,.733-.017a14.614,14.614,0,0,0,5.728-1.466l.295.885L32,38.932,25.253,36.4l.289-.868A14.9,14.9,0,0,0,31.99,37Zm-8.91,1a8.024,8.024,0,0,0,2.782,5H20V40H18v3H16v8H14V39.7A15.318,15.318,0,0,1,21,38ZM12,40.942V51H6.065A14.132,14.132,0,0,1,12,40.942ZM6,56V53H21a2,2,0,1,1,0,4H7A1,1,0,0,1,6,56Zm18.444,1H30v4H22V58.858A4,4,0,0,0,24.444,57ZM18,59h2v2H18Zm28,2H32V55H25a4,4,0,0,0-4-4H18V45H46v6H43.9A5,5,0,1,0,39,57h.556A3.987,3.987,0,0,0,43,59h3Zm-7-6a3,3,0,1,1,2.872-3.818A3.992,3.992,0,0,0,39,55Zm19,1a1,1,0,0,1-1,1H43a2,2,0,0,1,0-4H58v3Z"/>
    <path id="Path_58" data-name="Path 58" d="M20,47h8v2H20Z"/>
    <path id="Path_59" data-name="Path 59" d="M30,47h2v2H30Z"/>
    <path id="Path_60" data-name="Path 60" d="M26,51h6v2H26Z"/>
  </g>
</svg>
