<svg xmlns="http://www.w3.org/2000/svg" width="62" height="62" viewBox="0 0 62 62">
  <g id="_028-traffic_cone" data-name="028-traffic cone" transform="translate(-1 -1)">
    <path id="Path_122" data-name="Path 122" d="M46.746,41.076l-.516-1.549A15.08,15.08,0,0,0,51.739,33H53a4,4,0,0,0,4-4V24h2V18H56.943C56.351,8.836,47.767,1,38,1S19.649,8.836,19.057,18H17v6h1.991L19,29a4,4,0,0,0,4,4h1.261a15.08,15.08,0,0,0,5.509,6.527l-.515,1.545a20.223,20.223,0,0,0-8.9,2.53L17.134,31H11.866L5.224,57H1v6H63V55.888c0-8.1-6.8-14.229-16.254-14.812ZM60.953,55H57V47.089A11.7,11.7,0,0,1,60.953,55ZM53,44.554a15.768,15.768,0,0,1,2,1.035V61H53Zm-6-1.471a19.44,19.44,0,0,1,4,.742V45H47Zm4-16.262c-1.963-.388-4.927-1.278-6.322-2.821H51ZM53,31h-.558A14.925,14.925,0,0,0,53,27a2,2,0,0,1,0,4Zm2-5.444A3.959,3.959,0,0,0,53,25V24h2ZM54.942,18H49V11h2V8.942A15.411,15.411,0,0,1,54.942,18ZM27,9V7.034a17.728,17.728,0,0,1,2-1.428V9Zm4,2V4.546a17.228,17.228,0,0,1,4-1.259V15h6V3.287a17.276,17.276,0,0,1,4,1.259V11h2v7H29V11Zm6,0h2v2H37Zm2-2H37V7h2Zm8,0V5.605a17.985,17.985,0,0,1,2,1.428V9ZM39,3.051V5H37V3.051c.333-.02.664-.051,1-.051S38.667,3.031,39,3.051ZM25,8.942V11h2v7H21.058A15.411,15.411,0,0,1,25,8.942ZM19,20H57v2H19Zm6,4h6.32c-1.4,1.539-4.358,2.431-6.32,2.82Zm-2,0v1a3.951,3.951,0,0,0-2.006.56l0-1.56Zm0,7a2,2,0,0,1,0-4,14.925,14.925,0,0,0,.558,4Zm2.144-2.17c2.212-.405,7.12-1.646,8.557-4.83h8.6c1.437,3.185,6.345,4.425,8.557,4.83a12.983,12.983,0,0,1-25.711,0ZM38,42a14.89,14.89,0,0,0,6.453-1.479L45,42.163v.195A19.035,19.035,0,0,1,38,44a19.123,19.123,0,0,1-7-1.643v-.194l.547-1.642A14.89,14.89,0,0,0,38,42Zm-9,3H25V43.8a20.228,20.228,0,0,1,4-.719Zm-6-.491v9.452l-2.128-8.329A14.2,14.2,0,0,1,23,44.509ZM18.9,46H10.1l.511-2h7.782ZM13.42,33h2.16l2.3,9H11.12ZM9.587,48h9.826l2.3,9H7.287ZM26,61H3V59H26Zm-1-4V47h4.28A8.578,8.578,0,0,0,35,52.776V61H28V57Zm14-5.817V61H37V51.183l-.8-.163A6.476,6.476,0,0,1,31,45v-.479A20.14,20.14,0,0,0,38,46a20.14,20.14,0,0,0,7-1.479V45a6.476,6.476,0,0,1-5.2,6.02Zm2,1.593A8.58,8.58,0,0,0,46.72,47H51V61H41ZM57,61V57h4v4Z"/>
    <path id="Path_123" data-name="Path 123" d="M41,35H39a1,1,0,0,1-2,0H35a3,3,0,0,0,6,0Z"/>
    <circle id="Ellipse_47" data-name="Ellipse 47" cx="1" cy="1" r="1" transform="translate(31 28)"/>
    <circle id="Ellipse_48" data-name="Ellipse 48" cx="1" cy="1" r="1" transform="translate(43 28)"/>
    <path id="Path_124" data-name="Path 124" d="M37,30h2v2H37Z"/>
  </g>
</svg>
