<svg xmlns="http://www.w3.org/2000/svg" width="57.673" height="57.673" viewBox="0 0 57.673 57.673">
  <g id="economic" transform="translate(-1 -1)">
    <path id="Path_166" data-name="Path 166" d="M58.673,48.44a2.794,2.794,0,0,0-2.791-2.791H41a2.754,2.754,0,0,0-1.227.3,2.754,2.754,0,0,0,.3-1.227v-1.86a2.794,2.794,0,0,0-2.791-2.791H22.395a2.754,2.754,0,0,0-1.227.3,2.754,2.754,0,0,0,.3-1.227v-1.86a2.773,2.773,0,0,0-.726-1.86,2.768,2.768,0,0,0,.726-1.86V31.926A15.809,15.809,0,0,0,31.926,12.162h10a2.794,2.794,0,0,1,2.791,2.791V30.767H43.386a2.386,2.386,0,0,0-2.046,3.615l4.895,8.159a2.573,2.573,0,0,0,4.413,0l4.9-8.159A2.388,2.388,0,0,0,53.5,30.767H52.161V13.093a8.382,8.382,0,0,0-8.372-8.372H26.982A15.8,15.8,0,1,0,6.644,28.906H3.791A2.794,2.794,0,0,0,1,31.7v1.86a2.773,2.773,0,0,0,.726,1.86A2.773,2.773,0,0,0,1,37.278v1.86A2.773,2.773,0,0,0,1.726,41,2.773,2.773,0,0,0,1,42.859v1.86a2.773,2.773,0,0,0,.726,1.86A2.773,2.773,0,0,0,1,48.44V50.3a2.773,2.773,0,0,0,.726,1.86A2.773,2.773,0,0,0,1,54.022v1.86a2.794,2.794,0,0,0,2.791,2.791H18.674a2.773,2.773,0,0,0,1.86-.726,2.768,2.768,0,0,0,1.86.726H37.278a2.773,2.773,0,0,0,1.86-.726,2.768,2.768,0,0,0,1.86.726H55.882a2.794,2.794,0,0,0,2.791-2.791v-1.86a2.773,2.773,0,0,0-.726-1.86,2.768,2.768,0,0,0,.726-1.86ZM41,47.51h.93v1.86h1.86V47.51h1.86v1.86h1.86V47.51h1.86v1.86h1.86V47.51h1.86v1.86h1.86V47.51h.93a.932.932,0,0,1,.93.93V50.3a.932.932,0,0,1-.93.93H41a.932.932,0,0,1-.93-.93V48.44A.932.932,0,0,1,41,47.51Zm-18.6,3.721a.932.932,0,0,1-.93-.93V48.44a.932.932,0,0,1,.93-.93h.93v1.86h1.86V47.51h1.86v1.86h1.86V47.51h1.86v1.86h1.86V47.51h1.86v1.86h1.86V47.51h.93a.932.932,0,0,1,.93.93V50.3a.932.932,0,0,1-.93.93Zm-18.6,0a.932.932,0,0,1-.93-.93V48.44a.932.932,0,0,1,.93-.93h.93v1.86h1.86V47.51h1.86v1.86H10.3V47.51h1.86v1.86h1.86V47.51h1.86v1.86h1.86V47.51h.93a.932.932,0,0,1,.93.93V50.3a.932.932,0,0,1-.93.93ZM2.86,44.72v-1.86a.932.932,0,0,1,.93-.93h.93v1.86h1.86v-1.86h1.86v1.86H10.3v-1.86h1.86v1.86h1.86v-1.86h1.86v1.86h1.86v-1.86h.93a.932.932,0,0,1,.93.93v1.86a.932.932,0,0,1-.93.93H3.791A.932.932,0,0,1,2.86,44.72Zm0-5.581v-1.86a.932.932,0,0,1,.93-.93h.93v1.86h1.86v-1.86h1.86v1.86H10.3v-1.86h1.86v1.86h1.86v-1.86h1.86v1.86h1.86v-1.86h.93a.932.932,0,0,1,.93.93v1.86a.932.932,0,0,1-.93.93H3.791A.932.932,0,0,1,2.86,39.138Zm19.534,2.791h.93v1.86h1.86v-1.86h1.86v1.86h1.86v-1.86h1.86v1.86h1.86v-1.86h1.86v1.86h1.86v-1.86h.93a.932.932,0,0,1,.93.93v1.86a.932.932,0,0,1-.93.93H22.395a.932.932,0,0,1-.93-.93v-1.86A.932.932,0,0,1,22.395,41.929ZM50.3,13.093V32.627H53.5a.526.526,0,0,1,.451.8l-4.895,8.159a.743.743,0,0,1-1.222,0l-4.895-8.158a.527.527,0,0,1,.451-.8H46.58V14.953A4.656,4.656,0,0,0,41.929,10.3H31.207a15.83,15.83,0,0,0-2.359-3.721H43.789A6.519,6.519,0,0,1,50.3,13.093ZM2.86,16.813A13.953,13.953,0,1,1,16.813,30.767,13.969,13.969,0,0,1,2.86,16.813Zm0,14.883a.932.932,0,0,1,.93-.93h.93v1.86h1.86v-1.86h1.86v1.86H10.3V31.207a15.7,15.7,0,0,0,6.511,1.419,15.862,15.862,0,0,0,2.791-.261v1.192a.932.932,0,0,1-.93.93H3.791a.932.932,0,0,1-.93-.93ZM18.674,56.812H3.791a.932.932,0,0,1-.93-.93v-1.86a.932.932,0,0,1,.93-.93h.93v1.86h1.86v-1.86h1.86v1.86H10.3v-1.86h1.86v1.86h1.86v-1.86h1.86v1.86h1.86v-1.86h.93a.932.932,0,0,1,.93.93v1.86A.932.932,0,0,1,18.674,56.812Zm18.6,0H22.395a.932.932,0,0,1-.93-.93v-1.86a.932.932,0,0,1,.93-.93h.93v1.86h1.86v-1.86h1.86v1.86h1.86v-1.86h1.86v1.86h1.86v-1.86h1.86v1.86h1.86v-1.86h.93a.932.932,0,0,1,.93.93v1.86A.932.932,0,0,1,37.278,56.812Zm19.534-.93a.932.932,0,0,1-.93.93H41a.932.932,0,0,1-.93-.93v-1.86a.932.932,0,0,1,.93-.93h.93v1.86h1.86v-1.86h1.86v1.86h1.86v-1.86h1.86v1.86h1.86v-1.86h1.86v1.86h1.86v-1.86h.93a.932.932,0,0,1,.93.93Z"/>
    <path id="Path_167" data-name="Path 167" d="M16.791,23.774v1.969h1.86V23.774a3.627,3.627,0,0,0,.307-6.971l-1.885-.629a1.772,1.772,0,0,1,.56-3.454h.175a1.775,1.775,0,0,1,1.773,1.773v.087l1.86-.087a3.632,3.632,0,0,0-2.791-3.525V9h-1.86v1.969a3.627,3.627,0,0,0-.307,6.971l1.885.629a1.772,1.772,0,0,1-.56,3.454h-.175A1.775,1.775,0,0,1,15.86,20.25V19.232H14V20.25a3.632,3.632,0,0,0,2.791,3.525Z" transform="translate(-0.907 -0.558)"/>
    <path id="Path_168" data-name="Path 168" d="M17.093,29.185A12.093,12.093,0,1,0,5,17.093,12.107,12.107,0,0,0,17.093,29.185Zm0-22.325A10.232,10.232,0,1,1,6.86,17.093,10.244,10.244,0,0,1,17.093,6.86Z" transform="translate(-0.279 -0.279)"/>
  </g>
</svg>
