<svg xmlns="http://www.w3.org/2000/svg" width="62.477" height="62" viewBox="0 0 62.477 62">
  <g id="_005-engineer" data-name="005-engineer" transform="translate(-1 -1)">
    <path id="Path_30" data-name="Path 30" d="M18.707,43.707l-1.414-1.414L15.586,44H9v8h8V45.414ZM15,50H11V46h2.586l-1.293,1.293,1.414,1.414L15,47.414Z"/>
    <path id="Path_31" data-name="Path 31" d="M37,27h2v2H37Z"/>
    <path id="Path_32" data-name="Path 32" d="M38,34a3,3,0,0,0,3-3H39a1,1,0,0,1-2,0H35A3,3,0,0,0,38,34Z"/>
    <circle id="Ellipse_8" data-name="Ellipse 8" cx="1" cy="1" r="1" transform="translate(29 22)"/>
    <circle id="Ellipse_9" data-name="Ellipse 9" cx="1" cy="1" r="1" transform="translate(45 22)"/>
    <path id="Path_33" data-name="Path 33" d="M57.825,42.493a9.77,9.77,0,0,0,5.1-5.122L63.477,36H62c-3.446,0-5-10.526-5-18C57,7.99,49.187,1,38,1S19,7.99,19,18c0,.082-.025,7.886-1.728,13H1V63H39.6a3.393,3.393,0,0,0,3.1-2H63V54A15.23,15.23,0,0,0,57.825,42.493ZM18.363,57H7V37H20V56.065ZM24,33V56H22V35H18V33Zm-8,2H11V33h5Zm6,23H33v3H22Zm3-35V19.98c7.323-.285,11.382-3.666,13-5.408,1.618,1.742,5.677,5.123,13,5.408V23a12.961,12.961,0,0,1-.363,3H44a1.006,1.006,0,0,1-.8-.4l-1.8-2.4A3.013,3.013,0,0,0,39,22H37a3.017,3.017,0,0,0-2.4,1.2l-1.8,2.4a1.007,1.007,0,0,1-.8.4H25.363A12.961,12.961,0,0,1,25,23Zm7,5a3.017,3.017,0,0,0,2.4-1.2l1.8-2.4A1,1,0,0,1,37,24h2a1.006,1.006,0,0,1,.8.4l1.8,2.4A3.013,3.013,0,0,0,44,28h6A13,13,0,0,1,26,28Zm3,28H26V49h5.157A7.046,7.046,0,0,0,35,50.925ZM29,43H26V41.091A12.189,12.189,0,0,1,27.39,41H29Zm-3,4V45h3.082a6.886,6.886,0,0,0,.62,2Zm5-4.014V40.618l5.878,2.939C36.648,44.15,35.976,45,34,45,31.2,45,31.01,43.322,31,42.986ZM42,45c-1.973,0-2.648-.832-2.88-1.442L45,40.618V43C45,43.082,44.966,45,42,45Zm2.613-6.425L38,41.882l-6.613-3.307.476-1.9a14.849,14.849,0,0,0,12.274,0ZM30.234,35.809l-.2-.051L29.219,39H27.39a13.914,13.914,0,0,0-1.39.075V31.962a15.089,15.089,0,0,0,4.234,3.847ZM35,58h2v3H35Zm4-9v7H37V49H36a5.037,5.037,0,0,1-4.2-2.343A6.6,6.6,0,0,0,34,47a5.114,5.114,0,0,0,4-1.5A5.114,5.114,0,0,0,42,47a6.6,6.6,0,0,0,2.2-.343A5.037,5.037,0,0,1,40,49Zm7.918-4H55v2H46.3A6.857,6.857,0,0,0,46.918,45ZM47,43V41h1.609A11.864,11.864,0,0,1,55,42.884V43ZM21,18C21,9.168,27.991,3,38,3S55,9.168,55,18a69.885,69.885,0,0,0,.762,9.656c.9,5.676,2.486,9.038,4.738,10.031a6.761,6.761,0,0,1-4.832,3.255A13.847,13.847,0,0,0,48.609,39H46.781l-.811-3.242-.2.051A14.99,14.99,0,0,0,53,23V18H52c-9.294,0-13.016-5.331-13.168-5.555L38,11.2l-.832,1.248C37.131,12.5,33.356,18,24,18H23v5a14.9,14.9,0,0,0,2.333,8H19.369A54.21,54.21,0,0,0,21,18ZM3,61V33H9v2H5V59h9.859l-.876.5L16.611,61Zm15.893-2H19v-.061l1-.571v2.264L18.017,59.5ZM39.6,61H39V58h.59a1.5,1.5,0,0,1,.01,3ZM41,56.311V50.924A7.046,7.046,0,0,0,44.843,49H55V59H42.949A3.2,3.2,0,0,0,41,56.311ZM61,59H57V44.462A13.248,13.248,0,0,1,61,54Z"/>
  </g>
</svg>
