<svg xmlns="http://www.w3.org/2000/svg" width="44" height="62.202" viewBox="0 0 44 62.202">
  <g id="_014-architect" data-name="014-architect" transform="translate(-10 -1)">
    <path id="Path_67" data-name="Path 67" d="M31,22h2v2H31Z"/>
    <path id="Path_68" data-name="Path 68" d="M32,29a3,3,0,0,0,3-3H33a1,1,0,0,1-2,0H29A3,3,0,0,0,32,29Z"/>
    <circle id="Ellipse_25" data-name="Ellipse 25" cx="1" cy="1" r="1" transform="translate(37 20)"/>
    <circle id="Ellipse_26" data-name="Ellipse 26" cx="1" cy="1" r="1" transform="translate(25 20)"/>
    <path id="Path_69" data-name="Path 69" d="M47,35.676V18h2V12H46.932C46.249,6.035,39.57,1,32,1S17.751,6.035,17.068,12H15v6h2V35.676C13.04,37.928,10,41.35,10,45V55H37v2H35.586L34,58.586v1.949L38,63.2l4-2.667V58.586L40.414,57H39V55H51a3,3,0,0,0,3-3V45C54,41.35,50.96,37.928,47,35.676ZM40,59.414,38,60.8l-2-1.333L36.414,59h3.172Zm5-24.75a19.548,19.548,0,0,0-6.262-1.611l-.589-1.766A9.789,9.789,0,0,0,43,23V18h2ZM23,18H41v5c0,4.411-4.038,8-9,8s-9-3.589-9-8Zm4,19.346a8.276,8.276,0,0,0,2.86,1.367,1.053,1.053,0,0,1-.711.287H27ZM32,33a11.872,11.872,0,0,0,4.341-.815l.646,1.937C36.845,35.412,34.5,37,32,37s-4.845-1.588-4.986-2.878l.646-1.937A11.862,11.862,0,0,0,32,33Zm5,4.346V39H34.851a1.055,1.055,0,0,1-.711-.286A8.268,8.268,0,0,0,37,37.346ZM29.149,41A3.018,3.018,0,0,0,31,40.359v2.527A5.882,5.882,0,0,1,27.843,41ZM33,40.359A3.018,3.018,0,0,0,34.851,41h1.306A5.882,5.882,0,0,1,33,42.886ZM44.928,12H43V11a3,3,0,0,0-2-2.816V5.934A9.516,9.516,0,0,1,44.928,12ZM39,8.184A3,3,0,0,0,37,11v1H35V3.306a15.218,15.218,0,0,1,4,1.379ZM39,11a1,1,0,0,1,2,0v1H39ZM33,3.042V12H31V3.042C31.332,3.02,31.664,3,32,3S32.668,3.02,33,3.042ZM24,10a1,1,0,0,1,1,1v1H23V11A1,1,0,0,1,24,10Zm1-1.816v-3.5a15.218,15.218,0,0,1,4-1.379V12H27V11A3,3,0,0,0,25,8.184Zm-2-2.25v2.25A3,3,0,0,0,21,11v1H19.072A9.516,9.516,0,0,1,23,5.934ZM17,14H47v2H17Zm2,4h2v5a9.79,9.79,0,0,0,4.85,8.287l-.589,1.766A19.548,19.548,0,0,0,19,34.664V18Zm2,18.018v3.3c0,3.449-.936,6.208-2.707,7.979L18,47.586V49H12V45c0-3.423,4.122-7.21,9-8.982ZM12,51h6v2H12Zm19.171,2H20V48.4c1.964-2.15,3-5.28,3-9.087V35.419a15.778,15.778,0,0,1,2-.351V39c0,3.028,3.467,6,7,6s7-2.972,7-6V35.068a15.778,15.778,0,0,1,2,.351v3.894A14.315,14.315,0,0,0,42.945,47H34a3,3,0,0,0-3,3v2a3,3,0,0,0,.171,1ZM34,53a1,1,0,0,1-1-1V50a1,1,0,0,1,1-1h3v4Zm5-4h2v4H39Zm13,3a1,1,0,0,1-1,1H43V49h9Zm0-5H45.449C43.852,45.224,43,42.585,43,39.313v-3.3c4.878,1.772,9,5.559,9,8.982Z"/>
  </g>
</svg>
