<svg xmlns="http://www.w3.org/2000/svg" width="49.488" height="51.734" viewBox="0 0 49.488 51.734">
  <g id="search" transform="translate(-11.111)">
    <g id="Group_1" data-name="Group 1" transform="translate(11.111 0)">
      <path id="Path_138" data-name="Path 138" d="M71.491,33.083a.758.758,0,0,0-.758-.758H44.195a.758.758,0,0,0-.758.758v3.266a.758.758,0,0,0,.758.758H70.733a.758.758,0,0,0,.758-.758V33.083Zm-1.516,2.508H44.953V33.841H69.975v1.751Z" transform="translate(-40.171 -29.059)"/>
      <path id="Path_139" data-name="Path 139" d="M130.667,96.976h-19.8a.758.758,0,0,0,0,1.516h19.8a.758.758,0,1,0,0-1.516Z" transform="translate(-100.105 -87.177)"/>
      <path id="Path_140" data-name="Path 140" d="M130.667,129.3h-19.8a.758.758,0,0,0,0,1.516h19.8a.758.758,0,1,0,0-1.516Z" transform="translate(-100.105 -116.236)"/>
      <path id="Path_141" data-name="Path 141" d="M131.425,194.709a.758.758,0,0,0-.758-.758h-19.8a.758.758,0,0,0,0,1.516h19.8A.758.758,0,0,0,131.425,194.709Z" transform="translate(-100.105 -174.354)"/>
      <path id="Path_142" data-name="Path 142" d="M130.667,161.626h-19.8a.758.758,0,0,0,0,1.516h19.8a.758.758,0,1,0,0-1.516Z" transform="translate(-100.105 -145.295)"/>
      <path id="Path_143" data-name="Path 143" d="M120.1,259.36a.758.758,0,0,0-.758-.758h-8.472a.758.758,0,1,0,0,1.516h8.472A.758.758,0,0,0,120.1,259.36Z" transform="translate(-100.105 -232.472)"/>
      <path id="Path_144" data-name="Path 144" d="M122.239,227.034a.758.758,0,0,0-.758-.758H110.866a.758.758,0,1,0,0,1.516h10.615A.758.758,0,0,0,122.239,227.034Z" transform="translate(-100.105 -203.413)"/>
      <path id="Path_145" data-name="Path 145" d="M110.866,324.768h5.308a.758.758,0,0,0,0-1.516h-5.308a.758.758,0,1,0,0,1.516Z" transform="translate(-100.105 -290.59)"/>
      <path id="Path_146" data-name="Path 146" d="M117.85,291.685a.758.758,0,0,0-.758-.758h-6.226a.758.758,0,1,0,0,1.516h6.226A.758.758,0,0,0,117.85,291.685Z" transform="translate(-100.105 -261.531)"/>
      <path id="Path_147" data-name="Path 147" d="M110.866,389.418h5.512a.758.758,0,0,0,0-1.516h-5.512a.758.758,0,0,0,0,1.516Z" transform="translate(-100.105 -348.708)"/>
      <path id="Path_148" data-name="Path 148" d="M110.866,357.093h5a.758.758,0,1,0,0-1.516h-5a.758.758,0,1,0,0,1.516Z" transform="translate(-100.105 -319.649)"/>
      <path id="Path_149" data-name="Path 149" d="M43.437,101a.758.758,0,0,0,.758.758h3.266a.758.758,0,0,0,.758-.758V97.734a.758.758,0,0,0-.758-.758H44.195a.758.758,0,0,0-.758.758Zm1.516-2.508H46.7v1.751H44.953Z" transform="translate(-40.171 -87.177)"/>
      <path id="Path_150" data-name="Path 150" d="M43.437,165.65a.758.758,0,0,0,.758.758h3.266a.758.758,0,0,0,.758-.758v-3.266a.758.758,0,0,0-.758-.758H44.195a.758.758,0,0,0-.758.758Zm1.516-2.508H46.7v1.751H44.953Z" transform="translate(-40.171 -145.295)"/>
      <path id="Path_151" data-name="Path 151" d="M43.437,230.3a.758.758,0,0,0,.758.758h3.266a.758.758,0,0,0,.758-.758v-3.266a.758.758,0,0,0-.758-.758H44.195a.758.758,0,0,0-.758.758Zm1.516-2.508H46.7v1.751H44.953Z" transform="translate(-40.171 -203.413)"/>
      <path id="Path_152" data-name="Path 152" d="M43.437,294.951a.758.758,0,0,0,.758.758h3.266a.758.758,0,0,0,.758-.758v-3.266a.758.758,0,0,0-.758-.758H44.195a.758.758,0,0,0-.758.758Zm1.516-2.508H46.7v1.751H44.953Z" transform="translate(-40.171 -261.531)"/>
      <path id="Path_153" data-name="Path 153" d="M43.437,359.6a.758.758,0,0,0,.758.758h3.266a.758.758,0,0,0,.758-.758v-3.266a.758.758,0,0,0-.758-.758H44.195a.758.758,0,0,0-.758.758Zm1.516-2.508H46.7v1.751H44.953Z" transform="translate(-40.171 -319.649)"/>
      <path id="Path_154" data-name="Path 154" d="M60.377,50.44l-4.661-4.661.33-.33a.758.758,0,0,0,0-1.072L53.872,42.2a13.027,13.027,0,0,0-1.847-14.815v-4.9a.758.758,0,1,0-1.516,0v3.467a12.99,12.99,0,0,0-1.546-1.07V7.64h1.546V18.955a.758.758,0,1,0,1.516,0V6.882a.758.758,0,0,0-.758-.758h-2.3V3.82a.758.758,0,0,0-.758-.758H45.7V.758A.758.758,0,0,0,44.939,0H11.869a.758.758,0,0,0-.758.758V5.709a.758.758,0,1,0,1.516,0V1.516H44.181V23.227a13.2,13.2,0,0,0-1.806-.124A13.009,13.009,0,0,0,31.952,43.89H12.627V9.245a.758.758,0,1,0-1.516,0v35.4a.758.758,0,0,0,.758.758h2.508v2.508a.758.758,0,0,0,.758.758h2.3v2.3a.758.758,0,0,0,.758.758h33.07a.758.758,0,0,0,.758-.758v-1.5l.022-.022,2.062,2.062a.758.758,0,1,0,1.072-1.072l-2.062-2.062,1.526-1.526,4.661,4.661a.758.758,0,1,0,1.072-1.072Zm-5.938-5.527-2.927,2.927h0l-.329.329L49.8,46.789a13.139,13.139,0,0,0,3.26-3.257ZM45.7,4.578h1.751V24.125a12.846,12.846,0,0,0-1.751-.6ZM34.25,27.983a11.49,11.49,0,1,1-3.366,8.125,11.454,11.454,0,0,1,3.366-8.125ZM15.893,45.405H33.282a12.986,12.986,0,0,0,2.228,1.751H15.893Zm3.062,4.813V48.672H39.022A13.07,13.07,0,0,0,48.466,47.6l2.043,2.043v.574Z" transform="translate(-11.111 0)"/>
      <path id="Path_155" data-name="Path 155" d="M233.877,280.459a9.74,9.74,0,0,0,7.25-16.244A.758.758,0,1,0,240,265.228a8.219,8.219,0,1,1-2.585-1.935.758.758,0,1,0,.652-1.368,9.741,9.741,0,1,0-4.19,18.534Z" transform="translate(-202.612 -234.611)"/>
    </g>
  </g>
</svg>
