<svg xmlns="http://www.w3.org/2000/svg" width="57.339" height="57.339" viewBox="0 0 57.339 57.339">
  <g id="expertise" transform="translate(-1 -1)">
    <path id="Path_156" data-name="Path 156" d="M31.652,35.674l1.815-3.057-4.941-4.941-3.057,1.815a14.683,14.683,0,0,0-2.525-1.043L22.065,25H15.078L14.2,28.449a14.683,14.683,0,0,0-2.525,1.043L8.617,27.676,3.675,32.618l1.815,3.057A14.683,14.683,0,0,0,4.448,38.2L1,39.078v6.987l3.449.879a14.683,14.683,0,0,0,1.043,2.525L3.676,52.526l4.941,4.941,3.057-1.815A14.683,14.683,0,0,0,14.2,56.7l.879,3.448h6.987l.879-3.449a14.682,14.682,0,0,0,2.525-1.043l3.057,1.815,4.941-4.941-1.815-3.057A14.683,14.683,0,0,0,32.7,46.943l3.448-.879V39.078L32.694,38.2A14.679,14.679,0,0,0,31.652,35.674Zm2.641,8.953-3.093.789-.141.522a12.813,12.813,0,0,1-1.275,3.086l-.27.469,1.628,2.743-2.908,2.908-2.743-1.628-.469.27a12.85,12.85,0,0,1-3.086,1.275l-.522.141-.788,3.092H16.517L15.728,55.2l-.522-.141a12.812,12.812,0,0,1-3.086-1.275l-.469-.27L8.908,55.143,6,52.235l1.628-2.743-.27-.469a12.85,12.85,0,0,1-1.275-3.086l-.141-.522L2.85,44.627V40.517l3.093-.789.141-.522A12.812,12.812,0,0,1,7.358,36.12l.27-.469L6,32.908,8.908,30l2.743,1.628.469-.27a12.85,12.85,0,0,1,3.086-1.275l.522-.141.788-3.093h4.111l.789,3.093.522.141a12.812,12.812,0,0,1,3.086,1.275l.469.27L28.235,30l2.908,2.908-1.628,2.743.27.469a12.85,12.85,0,0,1,1.275,3.086l.141.522,3.093.788Z" transform="translate(0 -1.804)"/>
    <path id="Path_157" data-name="Path 157" d="M19.1,32A11.1,11.1,0,1,0,30.2,43.1,11.11,11.11,0,0,0,19.1,32Zm0,20.346A9.248,9.248,0,1,1,28.346,43.1,9.259,9.259,0,0,1,19.1,52.346Z" transform="translate(-0.526 -2.331)"/>
    <path id="Path_158" data-name="Path 158" d="M19.549,38A5.549,5.549,0,1,0,25.1,43.549,5.554,5.554,0,0,0,19.549,38Zm0,9.248a3.7,3.7,0,1,1,3.7-3.7A3.7,3.7,0,0,1,19.549,47.248Z" transform="translate(-0.977 -2.782)"/>
    <path id="Path_159" data-name="Path 159" d="M57.97,9h-22.2A2.778,2.778,0,0,0,33,11.774V24.722A2.778,2.778,0,0,0,35.774,27.5h1.85v4.271L46.166,27.5h11.8a2.778,2.778,0,0,0,2.774-2.774V11.774A2.778,2.778,0,0,0,57.97,9Zm.925,15.722a.925.925,0,0,1-.925.925H45.729l-6.255,3.128V25.647h-3.7a.925.925,0,0,1-.925-.925V11.774a.925.925,0,0,1,.925-.925h22.2a.925.925,0,0,1,.925.925Z" transform="translate(-2.406 -0.601)"/>
    <path id="Path_160" data-name="Path 160" d="M3.774,17.647h8.992l5.805,3.484V17.647h7.4a2.778,2.778,0,0,0,2.774-2.774V3.774A2.778,2.778,0,0,0,25.97,1H3.774A2.778,2.778,0,0,0,1,3.774v11.1A2.778,2.778,0,0,0,3.774,17.647ZM2.85,3.774a.925.925,0,0,1,.925-.925h22.2a.925.925,0,0,1,.925.925v11.1a.925.925,0,0,1-.925.925H16.722v2.065L13.279,15.8h-9.5a.925.925,0,0,1-.925-.925Z"/>
    <path id="Path_161" data-name="Path 161" d="M55.647,22.248H53.8v-7.4h-1.85v7.4H50.1V13h-1.85v9.248H46.4V16.7h-1.85v5.549H42.7v-3.7H40.85v3.7H39V24.1H57.5V13h-1.85Z" transform="translate(-2.857 -0.902)"/>
    <path id="Path_162" data-name="Path 162" d="M7.774,12.549A2.774,2.774,0,1,0,5,9.774,2.778,2.778,0,0,0,7.774,12.549Zm0-3.7a.925.925,0,1,1-.925.925A.925.925,0,0,1,7.774,8.85Z" transform="translate(-0.301 -0.451)"/>
    <path id="Path_163" data-name="Path 163" d="M15.774,12.549A2.774,2.774,0,1,0,13,9.774,2.778,2.778,0,0,0,15.774,12.549Zm0-3.7a.925.925,0,1,1-.925.925A.925.925,0,0,1,15.774,8.85Z" transform="translate(-0.902 -0.451)"/>
    <path id="Path_164" data-name="Path 164" d="M23.774,12.549A2.774,2.774,0,1,0,21,9.774,2.778,2.778,0,0,0,23.774,12.549Zm0-3.7a.925.925,0,1,1-.925.925A.925.925,0,0,1,23.774,8.85Z" transform="translate(-1.504 -0.451)"/>
    <path id="Path_165" data-name="Path 165" d="M51.128,41a10.129,10.129,0,0,0-5.145,1.406l-5.577-.662,1.876,4.421A10.168,10.168,0,1,0,51.128,41ZM45.908,57.647h10.44a8.291,8.291,0,0,1-10.44,0ZM49.9,51.616a1.826,1.826,0,0,1-.62-1.368V48.556a1.959,1.959,0,0,1,1.749-2,1.85,1.85,0,0,1,1.95,1.847v1.85a1.826,1.826,0,0,1-.62,1.368l-.305.276v1.7l2.556,1.278a2.059,2.059,0,0,1,.928.925H46.721a2.064,2.064,0,0,1,.928-.925L50.2,53.594v-1.7Zm7.682,4.805a3.886,3.886,0,0,0-2.145-3.2l-1.4-.7a3.687,3.687,0,0,0,.791-2.27V48.4a3.7,3.7,0,0,0-3.9-3.695,3.782,3.782,0,0,0-3.5,3.852v1.692a3.692,3.692,0,0,0,.79,2.27l-1.4.7a3.886,3.886,0,0,0-2.145,3.2,8.29,8.29,0,0,1-.577-9.69l.259-.41-1-2.366,3.055.363.278-.176A8.315,8.315,0,0,1,57.581,56.421Z" transform="translate(-2.963 -3.007)"/>
  </g>
</svg>
