<svg xmlns="http://www.w3.org/2000/svg" width="42" height="62.242" viewBox="0 0 42 62.242">
  <g id="_010-engineer" data-name="010-engineer" transform="translate(-11 -1)">
    <path id="Path_54" data-name="Path 54" d="M38.738,31.052l-.316-.949A10.138,10.138,0,0,0,42.493,25H43.5A3.779,3.779,0,0,0,47,21a3.779,3.779,0,0,0-3.5-4H47V11H44.941C44.363,6.015,39.525,1,32,1S19.637,6.015,19.059,11H17v6h3.5A3.779,3.779,0,0,0,17,21a3.779,3.779,0,0,0,3.5,4h1.007a10.139,10.139,0,0,0,4.071,5.1l-.316.949C17.836,31.594,11,37.123,11,42.765V50a3,3,0,0,0,3,3h7v4.236l3,6,3-6V53h1a3,3,0,0,0,3-3h2a3,3,0,0,0,3,3h.484l-2.536,5.916,1.082,4.326,1.939-.484-.918-3.674L38.659,53h2.682l2.607,6.084-.918,3.674,1.939.484,1.082-4.326L43.516,53H50a3,3,0,0,0,3-3V42.765c0-5.642-6.836-11.171-14.262-11.713ZM43,45V43.55A2.7,2.7,0,0,0,40,41a2.7,2.7,0,0,0-3,2.55V45H36a2.966,2.966,0,0,0-1,.184V39.745A6.171,6.171,0,0,0,38.314,37H45v8Zm-4,0V43.578c.018-.264.205-.578,1-.578s.983.314,1,.55V45Zm-10,.184A2.966,2.966,0,0,0,28,45H27V43.55A2.7,2.7,0,0,0,24,41a2.7,2.7,0,0,0-3,2.55V45H19V37h6.686A6.167,6.167,0,0,0,29,39.745ZM23,45V43.578c.018-.264.2-.578,1-.578s.983.314,1,.55V45Zm4.329-9.209a3.532,3.532,0,0,1-.329-1.5v-.676l2.561,1.28ZM37,34.294a3.532,3.532,0,0,1-.329,1.5L34.439,34.9,37,33.618Zm2-1.227a16.2,16.2,0,0,1,6,1.878V35H38.94a5.741,5.741,0,0,0,.06-.706ZM38,17a3.987,3.987,0,0,0-3.444,2H29.444A3.957,3.957,0,0,0,23,18.382V17H41v1.382A3.974,3.974,0,0,0,38,17Zm2,4a2,2,0,1,1-2-2A2,2,0,0,1,40,21ZM28,21a2,2,0,1,1-2-2A2,2,0,0,1,28,21Zm17,0c0,1.084-.687,2-1.5,2h-.556A9.181,9.181,0,0,0,43,22V19h.5C44.313,19,45,19.916,45,21ZM42.918,11H35V9h2V7H35V3.339C39.549,4.37,42.431,7.667,42.918,11ZM31,11V9h2v2Zm2-7.957V7H31V3.043C31.328,3.02,31.658,3,32,3s.672.02,1,.043Zm-4,.3V7H27V9h2v2H21.082C21.569,7.667,24.451,4.37,29,3.339ZM19,15V13H45v2Zm1.5,8c-.813,0-1.5-.916-1.5-2s.687-2,1.5-2H21v3a9.181,9.181,0,0,0,.056,1Zm2.769.907A3.988,3.988,0,0,0,30,21h4a3.988,3.988,0,0,0,6.731,2.907A8.865,8.865,0,0,1,32,30,8.865,8.865,0,0,1,23.269,23.907ZM32,32a11.825,11.825,0,0,0,4.632-.943l.145.436L32,33.882l-4.777-2.389.145-.436A11.825,11.825,0,0,0,32,32Zm-6.94,3H19v-.055a16.2,16.2,0,0,1,6-1.878v1.227a5.742,5.742,0,0,0,.06.706ZM13,42.765c0-2.349,1.6-4.718,4-6.538V45H13ZM23.618,58h.764L24,58.764ZM25,56H23V53h2Zm4-6a1,1,0,0,1-1,1H14a1,1,0,0,1-1-1V47H28a1,1,0,0,1,1,1Zm2-2V38.2l-.776-.178a4.665,4.665,0,0,1-1.486-.643L31.954,36.1l.046.022.046-.023,3.216,1.286a4.611,4.611,0,0,1-1.486.643L33,38.2V48Zm20,2a1,1,0,0,1-1,1H36a1,1,0,0,1-1-1V48a1,1,0,0,1,1-1H51Zm-4-5V36.227c2.4,1.82,4,4.188,4,6.538V45Z"/>
    <path id="Path_55" data-name="Path 55" d="M35,25H33a1,1,0,0,1-2,0H29a3,3,0,0,0,6,0Z"/>
  </g>
</svg>
