<svg xmlns="http://www.w3.org/2000/svg" width="49.939" height="57.339" viewBox="0 0 49.939 57.339">
  <g id="idea" transform="translate(-0.004 -0.001)">
    <path id="Path_133" data-name="Path 133" d="M100.856,46.79a4.621,4.621,0,0,0-3,4.315,4.569,4.569,0,0,0,.53,2.1,3.683,3.683,0,0,0,0,6.89,4.569,4.569,0,0,0-.53,2.1,4.62,4.62,0,0,0,3,4.315,3.648,3.648,0,0,0-.228,1.234,3.674,3.674,0,0,0,5,3.45,3.69,3.69,0,0,0,7.019-1.6V43.707a3.69,3.69,0,0,0-7.019-1.6,3.665,3.665,0,0,0-4.776,4.684Zm3.472-3.083a1.851,1.851,0,0,1,1.85,1.85h1.85a3.664,3.664,0,0,0-.853-2.333,1.845,1.845,0,0,1,3.627.484V69.6a1.845,1.845,0,0,1-3.627.484,3.663,3.663,0,0,0,.853-2.333h-1.85a1.85,1.85,0,1,1-1.85-1.85v-1.85a3.664,3.664,0,0,0-2.358.873,2.772,2.772,0,1,1,3.283-2.723h1.85a4.629,4.629,0,0,0-4.624-4.624,4.575,4.575,0,0,0-2.774.949V58.5a1.85,1.85,0,0,1,0-3.7v-.024a4.575,4.575,0,0,0,2.774.949,4.629,4.629,0,0,0,4.624-4.624h-1.85a2.774,2.774,0,1,1-3.283-2.722,3.664,3.664,0,0,0,2.358.873v-1.85a1.85,1.85,0,0,1,0-3.7Zm0,0" transform="translate(-84.902 -35.382)"/>
    <path id="Path_134" data-name="Path 134" d="M264.327,41.857a3.679,3.679,0,0,0-1.3.249,3.69,3.69,0,0,0-7.02,1.6V69.6a3.69,3.69,0,0,0,7.02,1.6,3.674,3.674,0,0,0,5-3.45,3.637,3.637,0,0,0-.228-1.234,4.62,4.62,0,0,0,3-4.315,4.568,4.568,0,0,0-.53-2.1,3.683,3.683,0,0,0,0-6.89,4.569,4.569,0,0,0,.53-2.1,4.621,4.621,0,0,0-3-4.315,3.635,3.635,0,0,0,.228-1.234A3.7,3.7,0,0,0,264.327,41.857Zm4.624,9.248a2.774,2.774,0,0,1-5.549,0h-1.85a4.629,4.629,0,0,0,4.624,4.624,4.575,4.575,0,0,0,2.774-.949V54.8a1.85,1.85,0,0,1,0,3.7v.024a4.575,4.575,0,0,0-2.774-.949,4.629,4.629,0,0,0-4.624,4.624h1.85a2.774,2.774,0,1,1,3.283,2.723,3.666,3.666,0,0,0-2.359-.873V65.9a1.85,1.85,0,1,1-1.85,1.85h-1.85a3.663,3.663,0,0,0,.853,2.333,1.845,1.845,0,0,1-3.627-.484V43.707a1.845,1.845,0,0,1,3.627-.484,3.664,3.664,0,0,0-.853,2.333h1.85a1.85,1.85,0,1,1,1.85,1.85v1.85a3.666,3.666,0,0,0,2.359-.873A2.775,2.775,0,0,1,268.951,51.105Zm0,0" transform="translate(-226.406 -35.382)"/>
    <path id="Path_135" data-name="Path 135" d="M99.843,5.769A21.094,21.094,0,0,0,83.921.045l.115,1.846A19.419,19.419,0,0,1,96,37.464a11.433,11.433,0,0,0-4.179,5.079H78.7a11.621,11.621,0,0,0-4.2-5.118,19.334,19.334,0,0,1-8.634-16.772L64.02,20.6a21.17,21.17,0,0,0,9.455,18.367,9.744,9.744,0,0,1,3.2,3.58H74.182v1.85h3.23a10.673,10.673,0,0,1,.4,1.85H76.032v1.85h1.85v2.774a.925.925,0,0,0,.925.925h.925a5.549,5.549,0,0,0,11.1,0h.925a.924.924,0,0,0,.925-.925V48.092h1.85v-1.85H92.743a10.31,10.31,0,0,1,.372-1.85h3.263v-1.85H93.845a9.536,9.536,0,0,1,3.175-3.536A21.267,21.267,0,0,0,99.843,5.769ZM85.28,55.49a3.7,3.7,0,0,1-3.7-3.7h7.4A3.7,3.7,0,0,1,85.28,55.49Zm5.549-5.549h-11.1v-1.85h11.1Zm.066-3.7H79.657a12.594,12.594,0,0,0-.313-1.85H91.182A12.287,12.287,0,0,0,90.894,46.242Zm0,0" transform="translate(-56.607 0)"/>
    <path id="Path_136" data-name="Path 136" d="M48.929,6.481a3.7,3.7,0,0,1,3.7,3.7.925.925,0,0,0,1.85,0,3.7,3.7,0,0,1,3.7-3.7.925.925,0,0,0,0-1.85,3.7,3.7,0,0,1-3.7-3.7.925.925,0,0,0-1.85,0,3.7,3.7,0,0,1-3.7,3.7.925.925,0,0,0,0,1.85ZM53.553,4a5.6,5.6,0,0,0,1.56,1.56,5.6,5.6,0,0,0-1.56,1.56,5.6,5.6,0,0,0-1.56-1.56A5.591,5.591,0,0,0,53.553,4Zm0,0" transform="translate(-42.451 -0.006)"/>
    <path id="Path_137" data-name="Path 137" d="M10.177,86.481a.925.925,0,0,0,0-1.85,3.7,3.7,0,0,1-3.7-3.7.925.925,0,0,0-1.85,0,3.7,3.7,0,0,1-3.7,3.7.925.925,0,0,0,0,1.85,3.7,3.7,0,0,1,3.7,3.7.925.925,0,0,0,1.85,0A3.7,3.7,0,0,1,10.177,86.481Zm-4.624.635a5.6,5.6,0,0,0-1.56-1.56A5.6,5.6,0,0,0,5.553,84a5.609,5.609,0,0,0,1.56,1.56A5.6,5.6,0,0,0,5.553,87.117Zm0,0" transform="translate(0 -70.758)"/>
  </g>
</svg>
