<svg xmlns="http://www.w3.org/2000/svg" width="62" height="62" viewBox="0 0 62 62">
  <g id="_001-architecture" data-name="001-architecture" transform="translate(-1 -1)">
    <path id="Path_1" data-name="Path 1" d="M5,49h6V43H5Zm2-4H9v2H7Z"/>
    <path id="Path_2" data-name="Path 2" d="M5,41h6V35H5Zm2-4H9v2H7Z"/>
    <path id="Path_3" data-name="Path 3" d="M13,49h6V43H13Zm2-4h2v2H15Z"/>
    <path id="Path_4" data-name="Path 4" d="M13,41h6V35H13Zm2-4h2v2H15Z"/>
    <path id="Path_5" data-name="Path 5" d="M21,49h6V43H21Zm2-4h2v2H23Z"/>
    <path id="Path_6" data-name="Path 6" d="M21,41h6V35H21Zm2-4h2v2H23Z"/>
    <path id="Path_7" data-name="Path 7" d="M52.729,45.023l-.511-1.532A8.965,8.965,0,0,0,55,37V36h4V32.586l-2.023-2.023A8.6,8.6,0,0,0,51,22.865V9H47V5H43V1H29V5H25V9H21V23H9v4H5v4H1V63H63V55.064c0-5.4-4.566-9.8-10.271-10.041ZM49,55h2v2H49Zm2.268-7.31.038,2.18-2.647-.441ZM53,55h2v2H53Zm2-7.584V53H52.221a4.8,4.8,0,0,0,1.086-3.017l-.051-2.929A9.4,9.4,0,0,1,55,47.416Zm-4.19-1.824L46,48.8l-4.81-3.206.277-.83a8.918,8.918,0,0,0,9.066,0ZM27,28V15h2V31H27Zm4,12h6.525a9.02,9.02,0,0,0,2.257,3.491l-.511,1.532A10.951,10.951,0,0,0,31,49.241Zm6-14.432a8.115,8.115,0,0,0-1.977,4.994L35,30.586V15h2ZM35,36h2v1a8.935,8.935,0,0,0,.059,1H35Zm8,21H41V55h2Zm-4,0H37V55h2Zm-2,2h6v2H37Zm0-6V47.416a9.248,9.248,0,0,1,1.743-.362L38.692,50a4.777,4.777,0,0,0,1.084,3Zm3.732-5.31,2.609,1.739-2.646.441ZM53,37a7,7,0,0,1-14,0V36H53Zm4-3H35v-.586L36.414,32H55.586L57,33.414Zm-2.085-4H37.085c.552-3.578,4.058-6,8.915-6S54.363,26.422,54.915,30ZM45,22.036a14.69,14.69,0,0,0-2,.261V15h2ZM31,3H41V5H31ZM27,7H45V9H27Zm-4,4H49V22.3a14.849,14.849,0,0,0-2-.261V13H41v9.864a10.885,10.885,0,0,0-2,.987V13H33V38H31V13H25V27H23V11ZM11,25H21v2H11ZM7,29H25v2H7ZM9,61H7V54H9Zm8,0H15V54h2Zm8,0H23V54h2Zm4,0H27V52H21v9H19V52H13v9H11V52H5v9H3V33H29Zm2-5.936A7.929,7.929,0,0,1,35,48.3V61H31ZM47,61H45V53H44a3.424,3.424,0,0,1-2.644-1.212L46,51.014l4.641.773A3.413,3.413,0,0,1,48,53H47Zm2-2h6v2H49Zm12,2H57V48.3a7.93,7.93,0,0,1,4,6.765Z"/>
  </g>
</svg>
