<svg xmlns="http://www.w3.org/2000/svg" width="62" height="62" viewBox="0 0 62 62">
  <g id="_025-strategy" data-name="025-strategy" transform="translate(-1 -1)">
    <path id="Path_104" data-name="Path 104" d="M40,37a1,1,0,0,1-1-1H37a3,3,0,0,0,6,0H41A1,1,0,0,1,40,37Z"/>
    <circle id="Ellipse_43" data-name="Ellipse 43" cx="1" cy="1" r="1" transform="translate(33 30)"/>
    <circle id="Ellipse_44" data-name="Ellipse 44" cx="1" cy="1" r="1" transform="translate(45 30)"/>
    <path id="Path_105" data-name="Path 105" d="M39,32h2v2H39Z"/>
    <path id="Path_106" data-name="Path 106" d="M48.794,43.053l-.679-2.715A14.283,14.283,0,0,0,52.56,35H54.5A3.779,3.779,0,0,0,58,31V26h2V20H57.945C57.4,11.809,50.233,5.476,41,5.043V1H1V7H3V47H21.15A12.557,12.557,0,0,0,17,56.492V63H63V56.492c0-7.447-5.807-12.877-14.206-13.439ZM43,55h2v2H43Zm4,0h7v2H47Zm7,4v2H47V59ZM49,45.059a16.029,16.029,0,0,1,5,1.225V53H52V51H50v2H44.876C47.15,51.776,49,49.646,49,47ZM45.815,49.79,42.236,48,47,45.618V47A4.184,4.184,0,0,1,45.815,49.79Zm1.021-6.326L40,46.882l-6.836-3.418.505-2.022a13.64,13.64,0,0,0,12.661,0ZM33,55v2H26V55Zm4,2H35V55h2ZM26,59h7v2H26Zm9,0h2v2H35Zm-5-6V51H28v2H26V46.292a16.028,16.028,0,0,1,5-1.222V47c0,2.646,1.85,4.776,4.124,6Zm4.185-3.21A4.184,4.184,0,0,1,33,47V45.618L37.764,48ZM40,41a12.087,12.087,0,0,1-11.758-9.8,25.059,25.059,0,0,1,5.286-4.152c2.162,2.045,4.226,3,6.472,3s4.31-.955,6.472-3A25.094,25.094,0,0,1,51.758,31.2,12.087,12.087,0,0,1,40,41ZM26,26v1h-.5a3.105,3.105,0,0,0-1.5.4V26Zm26,2.686A28.166,28.166,0,0,0,48.655,26H52ZM28,26h3.345A27.96,27.96,0,0,0,28,28.686Zm-2.5,3h.513a14.456,14.456,0,0,0,.626,4H25.5c-.813,0-1.5-.916-1.5-2S24.687,29,25.5,29Zm9.853-3h9.294A6.922,6.922,0,0,1,40,28.044,6.922,6.922,0,0,1,35.353,26ZM54.5,33H53.361a14.456,14.456,0,0,0,.626-4H54.5c.813,0,1.5.916,1.5,2S55.313,33,54.5,33ZM56,27.4a3.105,3.105,0,0,0-1.5-.4H54V26h2ZM58,24H22V22H58ZM31,20H29V18h2Zm10,0H39V18h2Zm10,0H49V18h2Zm4.944,0H53V16H47v4H43V16H37v4H33V16H27v4H24.056c.435-5.615,4.486-10.213,10.195-12.085L36.279,14H43.72l2.028-6.085C51.458,9.787,55.509,14.385,55.944,20ZM40,7a18.814,18.814,0,0,1,3.813.4L42.279,12H37.72L36.186,7.4A18.831,18.831,0,0,1,40,7ZM3,3H39V5H3ZM5,45V7H31.173a15.718,15.718,0,0,0-9.117,13H20v6h2v5a3.779,3.779,0,0,0,3.5,4h1.94a14.258,14.258,0,0,0,4.445,5.338l-.679,2.715A17.771,17.771,0,0,0,24.041,45ZM19,56.492a10.682,10.682,0,0,1,5-9.125V61H19Zm22-4.311V61H39V52.181l-.8-.162a7.824,7.824,0,0,1-2.28-.86L40,49.118l4.082,2.041a7.8,7.8,0,0,1-2.28.86ZM43,59h2v2H43Zm18,2H56V47.354a10.691,10.691,0,0,1,5,9.137Z"/>
    <path id="Path_107" data-name="Path 107" d="M7,41H9v2H7Z"/>
    <path id="Path_108" data-name="Path 108" d="M7,37H9v2H7Z"/>
    <path id="Path_109" data-name="Path 109" d="M11,41h4v2H11Z"/>
    <path id="Path_110" data-name="Path 110" d="M11,37h4v2H11Z"/>
    <path id="Path_111" data-name="Path 111" d="M17,37H27v2H17Z"/>
    <path id="Path_112" data-name="Path 112" d="M17,41H27v2H17Z"/>
    <path id="Path_113" data-name="Path 113" d="M7,25h6v2H7Z"/>
    <path id="Path_114" data-name="Path 114" d="M7,21h6v2H7Z"/>
    <path id="Path_115" data-name="Path 115" d="M21,9h2v2H21Z"/>
    <path id="Path_116" data-name="Path 116" d="M21,15V13H18.555l-2.5-4H9.945L6.82,14l3.125,5h6.109l2.5-4Zm-6.055,2H11.054L9.18,14l1.875-3h3.891l1.25,2H13v2h3.2Z"/>
  </g>
</svg>
