<svg xmlns="http://www.w3.org/2000/svg" width="62.199" height="62" viewBox="0 0 62.199 62">
  <g id="_004-engineer" data-name="004-engineer" transform="translate(-1 -1)">
    <path id="Path_17" data-name="Path 17" d="M58.885,38.362a8.124,8.124,0,0,0,4.1-5.683L63.2,31.5H62c-3.738,0-4.823-8.4-4.978-12.5H59V13H56.937C56.3,6.5,49.6,1,42,1S27.7,6.5,27.063,13H25v6h1.912c-.08.777-.221,1.893-.457,3.046A2.972,2.972,0,0,0,26,22H4a3,3,0,0,0-3,3V60a3,3,0,0,0,3,3H26a3,3,0,0,0,3-3V56H63V46c0-2.722-1.626-5.461-4.115-7.638ZM35,44v2H33V44Zm0,6H33V48h2Zm-2,2h2v2H33Zm4-8h2V54H37Zm-8-2V40h6.715A6.114,6.114,0,0,0,37.6,42Zm6.062-4H29.111A15.839,15.839,0,0,1,35,36.07v1.224A5.753,5.753,0,0,0,35.062,38ZM33,19H51v5c0,4.411-4.037,8-9,8s-9-3.589-9-8ZM49,37.294V36.07A15.85,15.85,0,0,1,54.926,38H48.94A5.741,5.741,0,0,0,49,37.294ZM42,34a11.872,11.872,0,0,0,4.341-.815l.436,1.308L42,36.882l-4.777-2.389.436-1.308A11.872,11.872,0,0,0,42,34Zm-4.655,4.785A3.408,3.408,0,0,1,37,37.294v-.676l2.561,1.28ZM47,36.618v.676a3.532,3.532,0,0,1-.329,1.5L44.439,37.9ZM48.314,40H55v2H46.459A5.836,5.836,0,0,0,48.314,40ZM51,50H49V48h2Zm0-6v2H49V44Zm-2,8h2v2H49Zm4-8h2V54H53Zm7.725-10.678A5.265,5.265,0,0,1,56.963,36.9a17.737,17.737,0,0,0-8.224-2.851l-.589-1.766A9.789,9.789,0,0,0,53,24V19h2.018C55.124,22.336,55.856,31.9,60.725,33.322ZM54.936,13H53V9H51V6.228A10.58,10.58,0,0,1,54.936,13ZM47,9v4H45V3.336a14.328,14.328,0,0,1,4,1.517V9Zm2,2h2v2H49ZM43,3.046V13H41V3.046c.332-.024.664-.046,1-.046s.668.022,1,.046ZM35,11v2H33V11Zm0-2V4.853a14.328,14.328,0,0,1,4-1.517V13H37V9ZM33,6.228V9H31v4H29.064A10.58,10.58,0,0,1,33,6.228ZM27,15H57v2H27Zm4,4v5a9.788,9.788,0,0,0,4.851,8.287l-.586,1.759A17.54,17.54,0,0,0,29,35.79V25a2.97,2.97,0,0,0-.722-1.929A32.368,32.368,0,0,0,28.922,19ZM22,61H8V43H22Zm5-1a1,1,0,0,1-1,1H24V41H6V61H4a1,1,0,0,1-1-1V25a1,1,0,0,1,1-1H26a1,1,0,0,1,1,1Zm2-16h2V54H29Zm14-2.8V54H41V41.214l-.765-.186a4.7,4.7,0,0,1-1.469-.658l3.188-1.275.046.023.046-.023,3.216,1.286a4.611,4.611,0,0,1-1.486.643ZM45,44h2V54H45ZM57,54V52h4v2Zm4-4H57V39.368c2.394,1.87,4,4.283,4,6.632Z"/>
    <path id="Path_18" data-name="Path 18" d="M10,49h2v2H10Z"/>
    <path id="Path_19" data-name="Path 19" d="M14,49h2v2H14Z"/>
    <path id="Path_20" data-name="Path 20" d="M18,49h2v2H18Z"/>
    <path id="Path_21" data-name="Path 21" d="M10,53h2v2H10Z"/>
    <path id="Path_22" data-name="Path 22" d="M14,53h2v2H14Z"/>
    <path id="Path_23" data-name="Path 23" d="M18,53h2v2H18Z"/>
    <path id="Path_24" data-name="Path 24" d="M10,57h2v2H10Z"/>
    <path id="Path_25" data-name="Path 25" d="M14,57h2v2H14Z"/>
    <path id="Path_26" data-name="Path 26" d="M18,57h2v2H18Z"/>
    <path id="Path_27" data-name="Path 27" d="M6,39H24V27H6Zm10-3.816A3,3,0,0,1,17.816,37H16ZM14,37H12.184A3,3,0,0,1,14,35.184ZM8,29H22v8H19.9A5.016,5.016,0,0,0,16,33.1V31H14v2.1A5.016,5.016,0,0,0,10.1,37H8Z"/>
    <circle id="Ellipse_5" data-name="Ellipse 5" cx="1" cy="1" r="1" transform="translate(14 45)"/>
    <path id="Path_28" data-name="Path 28" d="M41,23h2v2H41Z"/>
    <path id="Path_29" data-name="Path 29" d="M42,30a3,3,0,0,0,3-3H43a1,1,0,0,1-2,0H39A3,3,0,0,0,42,30Z"/>
    <circle id="Ellipse_6" data-name="Ellipse 6" cx="1" cy="1" r="1" transform="translate(47 21)"/>
    <circle id="Ellipse_7" data-name="Ellipse 7" cx="1" cy="1" r="1" transform="translate(35 21)"/>
  </g>
</svg>
