<svg xmlns="http://www.w3.org/2000/svg" width="62.038" height="62" viewBox="0 0 62.038 62">
  <g id="_016-builder" data-name="016-builder" transform="translate(-0.962 -1)">
    <path id="Path_74" data-name="Path 74" d="M9,57h2v2H9Z"/>
    <path id="Path_75" data-name="Path 75" d="M13,51h2v2H13Z"/>
    <path id="Path_76" data-name="Path 76" d="M21,49h2v2H21Z"/>
    <path id="Path_77" data-name="Path 77" d="M17,55h2v2H17Z"/>
    <path id="Path_78" data-name="Path 78" d="M29,57h2v2H29Z"/>
    <path id="Path_79" data-name="Path 79" d="M25,53h2v2H25Z"/>
    <path id="Path_80" data-name="Path 80" d="M41,20h2v2H41Z"/>
    <path id="Path_81" data-name="Path 81" d="M45,24H43a1,1,0,0,1-2,0H39a3,3,0,0,0,6,0Z"/>
    <circle id="Ellipse_29" data-name="Ellipse 29" cx="1" cy="1" r="1" transform="translate(47 18)"/>
    <circle id="Ellipse_30" data-name="Ellipse 30" cx="1" cy="1" r="1" transform="translate(35 18)"/>
    <path id="Path_82" data-name="Path 82" d="M63,43c0-5.652-6.958-11.39-14.261-11.946l-.589-1.767A10.193,10.193,0,0,0,52.493,24H53.5A3.779,3.779,0,0,0,57,20a3.779,3.779,0,0,0-3.5-4H57V10H54.924C54.294,5.5,49.475,1,42,1S29.706,5.5,29.076,10H27v6h3.5A3.779,3.779,0,0,0,27,20a3.779,3.779,0,0,0,3.5,4h1.007a10.193,10.193,0,0,0,4.343,5.287l-.585,1.756a18.111,18.111,0,0,0-10.273,4.466c.084-1.974.015-3.334.007-3.466l-.055-.943H16V21.4l6-6.343V10a5.006,5.006,0,0,0-5-5H9a5.006,5.006,0,0,0-5,5v5.011L10,21.4v9.7H.962L1,32.137c.021.551.561,13.315,5.974,19.227a6.819,6.819,0,0,0-1.435,3.1l-.2,1a1.009,1.009,0,0,1-.98.81H4.03A3.033,3.033,0,0,0,1,59.3V63H41.618l-2.694-5.389A11.415,11.415,0,0,0,35.379,53H63Zm-2,0v4H57V36.368C59.394,38.238,61,40.651,61,43ZM48.314,37H55v2H46.459A5.845,5.845,0,0,0,48.314,37ZM49,33.07A15.849,15.849,0,0,1,54.927,35H48.94a5.741,5.741,0,0,0,.06-.706ZM55,20c0,1.084-.687,2-1.5,2h-.556A9.181,9.181,0,0,0,53,21V18h.5C54.313,18,55,18.916,55,20ZM48,9v1H45V3.314a11.692,11.692,0,0,1,5.541,2.732A3,3,0,0,0,48,9Zm2,0a1,1,0,0,1,1-1h1.131a6.362,6.362,0,0,1,.761,2H50ZM43,3.039V10H41V3.039c.329-.021.66-.039,1-.039S42.671,3.018,43,3.039ZM33.459,6.046A11.688,11.688,0,0,1,39,3.314V10H36V9A3,3,0,0,0,33.459,6.046ZM31.869,8H33a1,1,0,0,1,1,1v1H31.108A6.387,6.387,0,0,1,31.869,8ZM29,14V12H55v2Zm1.5,8c-.813,0-1.5-.916-1.5-2s.687-2,1.5-2H31v3a9.181,9.181,0,0,0,.056,1ZM33,21V16H51v5c0,4.411-4.038,8-9,8S33,25.411,33,21Zm9,10a11.872,11.872,0,0,0,4.341-.815L46.88,31.8a6.519,6.519,0,0,1-9.76,0l.539-1.619A11.872,11.872,0,0,0,42,31ZM30.257,51a6.732,6.732,0,0,1-.711-.608L29,49.848V41H39V51ZM29,39V37h6.686a5.845,5.845,0,0,0,1.855,2Zm6.06-4H29.144A15.734,15.734,0,0,1,35,33.072v1.222A5.742,5.742,0,0,0,35.06,35ZM24.784,38.62A13.626,13.626,0,0,1,27,36.432V47.853l-.783-.781a7.88,7.88,0,0,0-2.588-1.88c-.08-.03-.167-.04-.25-.062a32.566,32.566,0,0,0,1.372-6.536ZM15.731,33.1,14.2,40H11.8l-1.534-6.9ZM13.586,15H12.318L10,12.6V11h6v1.586ZM12,17h2v3H12ZM6,14.219V10A3,3,0,0,1,9,7h8a3,3,0,0,1,3,3v4.259l-4,4.229V15.414l2-2V11a2,2,0,0,0-2-2H10a2,2,0,0,0-2,2v2.4l2,2.074v3ZM12,22h2v9.1H12ZM8.22,33.1,10.2,42h5.6l1.978-8.9h5.247a36.3,36.3,0,0,1-1.838,12.213c-.061.027-.124.041-.184.072l-1.327.659a2.633,2.633,0,0,1-.383.031A1.657,1.657,0,0,1,18.541,46l-1.8-.721a3.968,3.968,0,0,0-4.906,1.664l-1.09,1.811a4.337,4.337,0,0,1-.985,1.229A.606.606,0,0,1,9.61,50a3.129,3.129,0,0,0-1.013.168C4.394,45.783,3.312,36.257,3.066,33.1ZM37.052,58.318,38.382,61H3V59.3a1.031,1.031,0,0,1,1.03-1.03h.33A3.016,3.016,0,0,0,7.3,55.856l.2-1a4.641,4.641,0,0,1,1.273-2.486,1.351,1.351,0,0,1,.172-.149A1.079,1.079,0,0,1,9.63,52a2.2,2.2,0,0,0,1.283-.384,6.238,6.238,0,0,0,1.544-1.83l1.094-1.817A2,2,0,0,1,16,47.139l1.787.715a3.452,3.452,0,0,0,1.6.216,4.02,4.02,0,0,0,.816-.091l1.7-.807a1.314,1.314,0,0,1,1.017-.108A6.276,6.276,0,0,1,24.8,48.489L28.127,51.8a8.755,8.755,0,0,0,2.457,1.753,4.155,4.155,0,0,0,1.448.373l.88.069c1.313.116,3.588,2.675,4.14,4.321ZM43,38.2V51H41V38.2l-.776-.178a3.926,3.926,0,0,1-3.215-3.646,8.5,8.5,0,0,0,9.983,0,3.926,3.926,0,0,1-3.215,3.646ZM45,41H55V51H45ZM57,51V49h4v2Z"/>
  </g>
</svg>
