<svg xmlns="http://www.w3.org/2000/svg" width="42" height="62" viewBox="0 0 42 62">
  <g id="_024-screwdriver" data-name="024-screwdriver" transform="translate(-11 -1)">
    <path id="Path_101" data-name="Path 101" d="M38.738,31.054l-.589-1.766A10.355,10.355,0,0,0,42.075,25h.8A4,4,0,1,0,43,17.012V17h4V11H44.941C44.363,6.015,39.525,1,32,1S19.637,6.015,19.059,11H17v6h4v.012A4,4,0,1,0,21.125,25h.8a10.355,10.355,0,0,0,3.926,4.287l-.589,1.766C17.958,31.61,11,37.348,11,43v7a3,3,0,0,0,3,3h7v4h2v6h2V57h2V53h1a3,3,0,0,0,3-3H53V43c0-5.652-6.958-11.39-14.262-11.946ZM51,43v1H47V36.368C49.394,38.239,51,40.651,51,43ZM39,33.07a15.865,15.865,0,0,1,6,1.971V36H38.731A5.662,5.662,0,0,0,39,34.294ZM29,45.184A2.966,2.966,0,0,0,28,45H27V43.55A2.7,2.7,0,0,0,24,41a2.7,2.7,0,0,0-3,2.55V45H19V38h7.408A6.424,6.424,0,0,0,29,39.745ZM23,45V43.578c.018-.264.2-.578,1-.578s.983.314,1,.55V45Zm4.329-9.209a3.532,3.532,0,0,1-.329-1.5v-.676l2.561,1.28Zm9.342,0L34.439,34.9,37,33.618v.676a3.532,3.532,0,0,1-.329,1.5ZM45,21a2.067,2.067,0,0,1-2.125,2h-.1A9.122,9.122,0,0,0,43,21V19.012A2.054,2.054,0,0,1,45,21ZM42.918,11H40V9h2.333A7.7,7.7,0,0,1,42.918,11ZM41.1,7H38v4H35V3.339A10.836,10.836,0,0,1,41.1,7ZM33,3.043V11H31V3.043C31.328,3.02,31.658,3,32,3s.672.02,1,.043Zm-4,.3V11H26V7H22.9A10.836,10.836,0,0,1,29,3.339ZM21.667,9H24v2H21.082A7.7,7.7,0,0,1,21.667,9ZM19,13H45v2H19Zm2.125,10A2,2,0,1,1,21,19.012V21a9.122,9.122,0,0,0,.222,2ZM23,21V17H41v4c0,4.411-4.037,8-9,8S23,25.411,23,21Zm9,10a11.872,11.872,0,0,0,4.341-.815l.436,1.308L32,33.882l-4.777-2.389.436-1.308A11.872,11.872,0,0,0,32,31Zm-6.731,5H19v-.959a15.865,15.865,0,0,1,6-1.971v1.224A5.662,5.662,0,0,0,25.269,36ZM13,43c0-2.349,1.606-4.761,4-6.632V45H13ZM25,55H23V53h2Zm4-5a1,1,0,0,1-1,1H14a1,1,0,0,1-1-1V47H28a1,1,0,0,1,1,1Zm4-11.8V48H31V38.2l-.776-.178a4.665,4.665,0,0,1-1.486-.643L31.954,36.1l.046.022.046-.023,3.216,1.286a4.611,4.611,0,0,1-1.486.643Zm2,1.542A6.431,6.431,0,0,0,37.592,38H45V48H43V42H37v6H35ZM41,48H39V44h2Zm6,0V46h4v2Z"/>
    <path id="Path_102" data-name="Path 102" d="M31,20h2v2H31Z"/>
    <path id="Path_103" data-name="Path 103" d="M35,24H33a1,1,0,0,1-2,0H29a3,3,0,0,0,6,0Z"/>
    <circle id="Ellipse_41" data-name="Ellipse 41" cx="1" cy="1" r="1" transform="translate(37 19)"/>
    <circle id="Ellipse_42" data-name="Ellipse 42" cx="1" cy="1" r="1" transform="translate(25 19)"/>
  </g>
</svg>
